<svg xmlns="http://www.w3.org/2000/svg" xmlns:xlink="http://www.w3.org/1999/xlink" width="40" height="40" viewBox="0 0 40 40">
  <defs>
    <clipPath id="clip-path">
      <rect id="Rectangle_284" data-name="Rectangle 284" width="21.993" height="27.152" fill="none"/>
    </clipPath>
  </defs>
  <g id="Group_483" data-name="Group 483" transform="translate(-88 -20)">
    <rect id="Rectangle_241" data-name="Rectangle 241" width="40" height="40" rx="6" transform="translate(88 20)" fill="#227dd7"/>
    <g id="Group_467" data-name="Group 467" transform="translate(97 24.396)">
      <g id="Group_468" data-name="Group 468" clip-path="url(#clip-path)">
        <path id="Path_172" data-name="Path 172" d="M10.721,15.02a1.411,1.411,0,1,0,1.411,1.41,1.41,1.41,0,0,0-1.411-1.41m4.525-8.313a10.724,10.724,0,1,0,6.193,9.952A1.734,1.734,0,0,0,18,16.59a7.271,7.271,0,1,1-4.2-6.756l-.007,0a1.724,1.724,0,0,0,1.456-3.123m-2.533,6.264,5.27-3.043V2a2,2,0,0,1,4.009,0v9.075h0a2,2,0,0,1-1,1.731l-6.277,3.625a3.988,3.988,0,1,1-2-3.464" fill="#fff"/>
      </g>
    </g>
  </g>
</svg>
