<svg xmlns="http://www.w3.org/2000/svg" width="17.625" height="17.625" viewBox="0 0 17.625 17.625">
  <path id="Union_5" data-name="Union 5" d="M3544.787-12001.317l-.03-.111H3542v-1.194h2.754l.03-.108a2.653,2.653,0,0,1,2.545-1.942,2.648,2.648,0,0,1,2.539,1.942l.03.108h9.726v1.194H3549.9l-.03.111a2.637,2.637,0,0,1-2.539,1.942A2.641,2.641,0,0,1,3544.787-12001.317Zm1.083-.706a1.46,1.46,0,0,0,1.46,1.454,1.463,1.463,0,0,0,1.457-1.454,1.46,1.46,0,0,0-1.457-1.459A1.461,1.461,0,0,0,3545.869-12002.023Zm5.887-5.455-.03-.112H3542v-1.194h9.726l.03-.108a2.654,2.654,0,0,1,2.542-1.942,2.65,2.65,0,0,1,2.539,1.942l.033.108h2.753v1.194h-2.756l-.03.112a2.637,2.637,0,0,1-2.539,1.941A2.641,2.641,0,0,1,3551.756-12007.479Zm1.086-.706a1.457,1.457,0,0,0,1.457,1.453,1.461,1.461,0,0,0,1.457-1.453,1.46,1.46,0,0,0-1.457-1.46A1.46,1.46,0,0,0,3552.842-12008.185Zm-8.055-5.456-.03-.111H3542v-1.194h2.757l.03-.108a2.639,2.639,0,0,1,2.542-1.945,2.636,2.636,0,0,1,2.539,1.945l.03.108h9.726v1.194H3549.9l-.03.111a2.636,2.636,0,0,1-2.539,1.942A2.64,2.64,0,0,1,3544.787-12013.641Zm1.083-.705a1.458,1.458,0,0,0,1.46,1.453,1.461,1.461,0,0,0,1.457-1.453,1.46,1.46,0,0,0-1.457-1.46A1.461,1.461,0,0,0,3545.869-12014.346Z" transform="translate(-3542 12017)" fill="#f06434"/>
</svg>
