<?xml version="1.0" encoding="UTF-8"?>
<svg width="20px" height="21px" viewBox="0 0 20 21" version="1.1" xmlns="http://www.w3.org/2000/svg" xmlns:xlink="http://www.w3.org/1999/xlink">
    <title>calendar-1</title>
    <g id="-" stroke="none" stroke-width="1" fill="none" fill-rule="evenodd">
        <g id="15" transform="translate(-913.000000, -1002.000000)" fill="#000000" fill-rule="nonzero">
            <g id="calendar-1" transform="translate(913.000000, 1002.000000)">
                <path d="M16.8020617,21 L2.44793832,21 C1.10057173,21 0,19.9371166 0,18.6358896 L0,4.77331288 C0,3.47208589 1.10057173,2.40920245 2.44793832,2.40920245 L16.8020617,2.40920245 C18.1494283,2.40920245 19.25,3.47208589 19.25,4.77331288 L19.25,18.6358896 C19.25,19.9371166 18.1494283,21 16.8020617,21 Z M2.44793832,4.34171779 C2.20114345,4.34171779 2.0010395,4.53496933 2.0010395,4.77331288 L2.0010395,18.6358896 C2.0010395,18.8742331 2.20114345,19.0674847 2.44793832,19.0674847 L16.8020617,19.0674847 C17.0488565,19.0674847 17.2489605,18.8742331 17.2489605,18.6358896 L17.2489605,4.77331288 C17.2489605,4.53496933 17.0488565,4.34171779 16.8020617,4.34171779 L2.44793832,4.34171779 Z" id="Shape"></path>
                <rect id="Rectangle" x="1.00051975" y="6.29355828" width="17.2489605" height="1.93251534"></rect>
                <path d="M5.69629245,5.49478528 C5.14267152,5.49478528 4.6957727,5.06319018 4.6957727,4.52852761 L4.6957727,0.966257669 C4.6957727,0.431595092 5.14267152,0 5.69629245,0 C6.24991337,0 6.6968122,0.431595092 6.6968122,0.966257669 L6.6968122,4.52852761 C6.6968122,5.06319018 6.24991337,5.49478528 5.69629245,5.49478528 Z" id="Path"></path>
                <path d="M13.7671518,5.49478528 C13.2135308,5.49478528 12.766632,5.06319018 12.766632,4.52852761 L12.766632,0.966257669 C12.766632,0.431595092 13.2135308,0 13.7671518,0 C14.3207727,0 14.7676715,0.431595092 14.7676715,0.966257669 L14.7676715,4.52852761 C14.7676715,5.06319018 14.3207727,5.49478528 13.7671518,5.49478528 Z" id="Path"></path>
                <path d="M12.7933125,14.0429448 L6.46335759,14.0429448 C5.90973666,14.0429448 5.46283784,13.6113497 5.46283784,13.0766871 C5.46283784,12.5420245 5.90973666,12.1104294 6.46335759,12.1104294 L12.7933125,12.1104294 C13.3469335,12.1104294 13.7938323,12.5420245 13.7938323,13.0766871 C13.7938323,13.6113497 13.3469335,14.0429448 12.7933125,14.0429448 Z" id="Path"></path>
            </g>
        </g>
    </g>
</svg>