<svg xmlns="http://www.w3.org/2000/svg" width="19.572" height="19.572" viewBox="0 0 19.572 19.572">
  <g id="_01_align_center" data-name="01 align center" transform="translate(0.25 0.25)">
    <path id="Path_384" data-name="Path 384" d="M16.688,1.589H14.3V0H12.715V1.589H6.357V0H4.768V1.589H2.384A2.384,2.384,0,0,0,0,3.973v15.1H19.072V3.973A2.384,2.384,0,0,0,16.688,1.589ZM1.589,3.973a.8.8,0,0,1,.795-.795h14.3a.8.8,0,0,1,.795.795V6.357H1.589Zm0,13.509V7.947H17.482v9.536Z" fill="#f06434" stroke="#fff" stroke-width="0.5"/>
    <rect id="Rectangle_398" data-name="Rectangle 398" width="2" height="2" transform="translate(11.536 10.536)" fill="#f06434" stroke="#fff" stroke-width="0.5"/>
    <rect id="Rectangle_399" data-name="Rectangle 399" width="2" height="2" transform="translate(8.536 10.536)" fill="#f06434" stroke="#fff" stroke-width="0.5"/>
    <rect id="Rectangle_400" data-name="Rectangle 400" width="2" height="2" transform="translate(5.536 10.536)" fill="#f06434" stroke="#fff" stroke-width="0.5"/>
    <rect id="Rectangle_401" data-name="Rectangle 401" width="2" height="2" transform="translate(11.536 13.536)" fill="#f06434" stroke="#fff" stroke-width="0.5"/>
    <rect id="Rectangle_402" data-name="Rectangle 402" width="2" height="2" transform="translate(8.536 13.536)" fill="#f06434" stroke="#fff" stroke-width="0.5"/>
    <rect id="Rectangle_403" data-name="Rectangle 403" width="2" height="2" transform="translate(5.536 13.536)" fill="#f06434" stroke="#fff" stroke-width="0.5"/>
  </g>
</svg>
