<svg xmlns="http://www.w3.org/2000/svg" width="20.866" height="19.159" viewBox="0 0 20.866 19.159">
  <g id="Group_666" data-name="Group 666" transform="translate(0.5 0.5)">
    <g id="Group_796" data-name="Group 796" transform="translate(0 0)">
      <path id="Path_325" data-name="Path 325" d="M19.867,18.159H0V2.257A2.26,2.26,0,0,1,2.257,0H17.609a2.26,2.26,0,0,1,2.257,2.257v15.9ZM1.108,6.222h0V17.051h17.65V6.222ZM2.257,1.106A1.149,1.149,0,0,0,1.108,2.253V5.111h17.65V2.253A1.15,1.15,0,0,0,17.61,1.106ZM12.193,13.9H4.263V12.788h7.93ZM15.6,10.485H4.263V9.377H15.6ZM8.12,3.747a.766.766,0,1,0,0-.006Zm-2.465,0a.635.635,0,0,1,0-1.27.632.632,0,1,1,0,1.265Zm-2.466,0a.635.635,0,1,1,.632-.638.643.643,0,0,1-.629.632Z" transform="translate(0 0)" fill="#d9dce0" stroke="rgba(0,0,0,0)" stroke-width="1"/>
    </g>
  </g>
</svg>
