<svg xmlns="http://www.w3.org/2000/svg" xmlns:xlink="http://www.w3.org/1999/xlink" width="16.793" height="18.159" viewBox="0 0 16.793 18.159">
  <defs>
    <clipPath id="clip-path">
      <rect id="Rectangle_446" data-name="Rectangle 446" width="16.793" height="18.159" transform="translate(0 0)" fill="none"/>
    </clipPath>
  </defs>
  <g id="Group_829" data-name="Group 829" transform="translate(0 0)">
    <g id="Group_829-2" data-name="Group 829" transform="translate(0 0)" clip-path="url(#clip-path)">
      <path id="Path_407" data-name="Path 407" d="M14.645,0H2.148A2.15,2.15,0,0,0,0,2.147V3.932l6.249,7.03v3.976l4.295,3.221v-7.2l6.249-7.03V2.147A2.15,2.15,0,0,0,14.645,0m.977,3.487-6.249,7.03v5.3L7.42,14.353V10.517L1.171,3.487V2.147a.978.978,0,0,1,.977-.977h12.5a.978.978,0,0,1,.977.977Z" transform="translate(0 0)" fill="#f06434"/>
    </g>
  </g>
</svg>
