<svg xmlns="http://www.w3.org/2000/svg" xmlns:xlink="http://www.w3.org/1999/xlink" width="22.918" height="30.264" viewBox="0 0 22.918 30.264">
  <defs>
    <linearGradient id="linear-gradient" x1="0.5" x2="0.5" y2="1" gradientUnits="objectBoundingBox">
      <stop offset="0" stop-color="#f7931d"/>
      <stop offset="1" stop-color="#f57234"/>
    </linearGradient>
  </defs>
  <path id="hourglass-end" d="M20.187,29.464H7.917A4.928,4.928,0,0,1,4.18,27.745a4.837,4.837,0,0,1-1.126-3.877,15.373,15.373,0,0,1,5.4-9.136,15.373,15.373,0,0,1-5.4-9.139A4.837,4.837,0,0,1,4.18,1.719,4.928,4.928,0,0,1,7.917,0H20.187a4.932,4.932,0,0,1,3.737,1.719,4.841,4.841,0,0,1,1.127,3.873,15.414,15.414,0,0,1-5.415,9.14,15.416,15.416,0,0,1,5.409,9.144,4.842,4.842,0,0,1-1.127,3.874,4.932,4.932,0,0,1-3.731,1.714Zm0-27.008H7.917a2.474,2.474,0,0,0-1.876.859,2.358,2.358,0,0,0-.56,1.91c.462,3.069,2.362,5.942,5.647,8.541a1.228,1.228,0,0,1,0,1.925c-3.285,2.6-5.182,5.477-5.647,8.545a2.358,2.358,0,0,0,.56,1.914,2.474,2.474,0,0,0,1.876.859H20.187a2.473,2.473,0,0,0,1.876-.859,2.353,2.353,0,0,0,.56-1.908c-.458-3.053-2.357-5.928-5.647-8.547a1.228,1.228,0,0,1,0-1.92c3.291-2.619,5.191-5.494,5.647-8.548a2.352,2.352,0,0,0-.566-1.911A2.473,2.473,0,0,0,20.187,2.455Zm-1.619,22.1H9.529a1.228,1.228,0,0,1-1.138-1.687,13.731,13.731,0,0,1,4.261-5.245l.636-.506a1.228,1.228,0,0,1,1.528,0l.625.5A13.873,13.873,0,0,1,19.7,22.864a1.228,1.228,0,0,1-1.137,1.689ZM11.635,22.1h4.822a14.2,14.2,0,0,0-2.409-2.455A13.873,13.873,0,0,0,11.635,22.1Z" transform="translate(-2.593 0.4)" stroke="#fff" stroke-width="0.8" fill="url(#linear-gradient)"/>
</svg>
