<svg xmlns="http://www.w3.org/2000/svg" width="52" height="52" viewBox="0 0 52 52">
  <g id="Group_846" data-name="Group 846" transform="translate(-1104 -766)">
    <rect id="Shape_BG" data-name="Shape BG" width="52" height="52" rx="5" transform="translate(1104 766)" fill="#db1818"/>
    <g id="_01_align_center" transform="translate(1088.261 779.186)">
      <path id="Path_299" data-name="Path 299" d="M46.4,4.853c-1.16-.983-2.355-2-3.564-3.208L42.142.96l-.677.685C39.288,3.828,38.26,7.179,37.813,9.19a5.833,5.833,0,0,1-.751-1.723l-.409-1.579L35.464,7.006c-2.083,1.955-3.472,3.9-3.472,7a10.053,10.053,0,0,0,7.524,9.817,10.717,10.717,0,0,0,1.992.29c.221.016.853.032.961.025a10.127,10.127,0,0,0,9.822-10.131C52.292,9.86,49.559,7.54,46.4,4.853ZM42.329,22.2c-.1.009-.193.01-.3.009a3.352,3.352,0,0,1-3.25-3.343c0-1.225.657-1.836,2.144-3.1.375-.319.783-.666,1.211-1.063.376.341.741.65,1.078.937,1.494,1.267,2.273,1.987,2.273,3.224A3.348,3.348,0,0,1,42.329,22.2Zm4.85-1.711-.019.014a5.268,5.268,0,0,0,.263-1.637c0-2.188-1.436-3.407-2.954-4.7-.538-.456-1.094-.927-1.648-1.482L42.136,12l-.683.683c-.626.625-1.239,1.147-1.779,1.607-1.515,1.289-2.824,2.4-2.824,4.572a5.258,5.258,0,0,0,.29,1.7A8.226,8.226,0,0,1,33.924,14a6.412,6.412,0,0,1,1.825-4.541,7.487,7.487,0,0,0,.723,1.178,1.739,1.739,0,0,0,1.793.658A1.793,1.793,0,0,0,39.63,9.915,15.822,15.822,0,0,1,42.2,3.732c1.019.966,2.029,1.821,2.94,2.595,3.026,2.57,5.217,4.427,5.217,7.68a8.164,8.164,0,0,1-3.175,6.478h0Z" transform="translate(0 0)" fill="#fff" stroke="#db1818" stroke-linecap="round" stroke-linejoin="round" stroke-width="0.8"/>
    </g>
  </g>
</svg>
