<svg xmlns="http://www.w3.org/2000/svg" width="52" height="52" viewBox="0 0 52 52">
  <g id="Group_848" data-name="Group 848" transform="translate(-1188 -766)">
    <rect id="Shape_BG" data-name="Shape BG" width="52" height="52" rx="5" transform="translate(1188 766)" fill="#1d76ce"/>
    <path id="Path_295" data-name="Path 295" d="M22.248,12.556A10.634,10.634,0,0,0,12.59,1.981V0H10.658V1.981A10.6,10.6,0,0,0,3.838,19.76L1.975,21.805l1.429,1.3,1.868-2.05a10.543,10.543,0,0,0,12.7,0l1.868,2.053,1.429-1.3L19.41,19.763a10.574,10.574,0,0,0,2.838-7.207ZM11.624,21.248a8.692,8.692,0,1,1,8.692-8.692A8.692,8.692,0,0,1,11.624,21.248Z" transform="translate(1201.949 780)" fill="#fff" stroke="#1d76ce" stroke-width="0.8"/>
    <path id="Path_296" data-name="Path 296" d="M5.335,1.687,4.3.056A14.651,14.651,0,0,0,.017,3.876L1.623,4.947a12.7,12.7,0,0,1,3.712-3.26Z" transform="translate(1201.983 780)" fill="#fff" stroke="#1d76ce" stroke-width="0.8"/>
    <path id="Path_297" data-name="Path 297" d="M22.189,4.947l1.606-1.071A14.651,14.651,0,0,0,19.508.056L18.477,1.687a12.7,12.7,0,0,1,3.712,3.26Z" transform="translate(1201.352 780)" fill="#fff" stroke="#1d76ce" stroke-width="0.8"/>
    <path id="Path_298" data-name="Path 298" d="M11,7v5.229l3.18,3.18,1.366-1.366-2.614-2.614V7Z" transform="translate(1201.607 779.762)" fill="#fff" stroke="#1d76ce" stroke-width="0.8"/>
  </g>
</svg>
