<svg xmlns="http://www.w3.org/2000/svg" width="52" height="52" viewBox="0 0 52 52">
  <g id="Group_865" data-name="Group 865" transform="translate(-1086 -446)">
    <g id="Shape_BG" data-name="Shape BG" transform="translate(1086 446)" fill="none" stroke="#c1c1c1" stroke-width="1">
      <rect width="52" height="52" rx="5" stroke="none"/>
      <rect x="0.5" y="0.5" width="51" height="51" rx="4.5" fill="none"/>
    </g>
    <path id="bolt" d="M10.63,21.986a2.072,2.072,0,0,1-.868-.194,2,2,0,0,1-1.1-2.4l1.43-4.732H6.723a2.748,2.748,0,0,1-2.634-3.544l2.77-9.161A2.733,2.733,0,0,1,9.494,0h3.383a2.382,2.382,0,0,1,2.229,3.216L13.564,7.329h2.342a2.748,2.748,0,0,1,2.275,4.291l-5.863,9.436a2.015,2.015,0,0,1-1.688.931ZM9.494,1.832a.916.916,0,0,0-.878.65l-2.77,9.161a.916.916,0,0,0,.877,1.182h4.6a.916.916,0,0,1,.877,1.182l-1.784,5.9a.168.168,0,0,0,.111.221.172.172,0,0,0,.246-.067l5.863-9.436a.916.916,0,0,0,.071-.974.9.9,0,0,0-.8-.492H12.242a.916.916,0,0,1-.858-1.238l2.006-5.35a.55.55,0,0,0-.513-.741Z" transform="translate(1100.529 461.5)" fill="#919191" stroke="#fff" stroke-width="0.8"/>
  </g>
</svg>
