<svg xmlns="http://www.w3.org/2000/svg" width="52" height="52" viewBox="0 0 52 52">
  <g id="Group_857" data-name="Group 857" transform="translate(-342 -518)">
    <g id="Shape_BG" data-name="Shape BG" transform="translate(342 518)" fill="none" stroke="#c1c1c1" stroke-width="1">
      <rect width="52" height="52" rx="5" stroke="none"/>
      <rect x="0.5" y="0.5" width="51" height="51" rx="4.5" fill="none"/>
    </g>
    <path id="map-marker" d="M10.993,10.993A3.664,3.664,0,1,0,7.329,7.329a3.664,3.664,0,0,0,3.664,3.664Zm0-5.5A1.832,1.832,0,1,1,9.161,7.329,1.832,1.832,0,0,1,10.993,5.5Zm7.933,2.892-.659-.219a7.322,7.322,0,1,0-14.524.159A4.622,4.622,0,0,0,1.409,9.52,4.531,4.531,0,0,0,0,12.825v3.733a4.592,4.592,0,0,0,3.3,4.4l2.629.824a4.563,4.563,0,0,0,1.364.206,4.65,4.65,0,0,0,1.241-.17l5.295-1.566a2.736,2.736,0,0,1,1.441,0l2.187.733a3.664,3.664,0,0,0,4.531-3.557V12.708a4.594,4.594,0,0,0-3.06-4.32ZM7.107,3.446a5.5,5.5,0,0,1,7.782,7.787L11.634,14.4a.909.909,0,0,1-1.272,0L7.107,11.247a5.533,5.533,0,0,1,0-7.8ZM20.154,17.425a1.824,1.824,0,0,1-.7,1.44,1.8,1.8,0,0,1-1.49.362L15.816,18.5a4.6,4.6,0,0,0-2.489-.015l-5.3,1.565a2.748,2.748,0,0,1-1.552-.027L3.826,19.2a2.76,2.76,0,0,1-1.993-2.646V12.825a2.715,2.715,0,0,1,.843-1.981A2.77,2.77,0,0,1,4.2,10.105,7.348,7.348,0,0,0,5.821,12.55l3.268,3.163a2.733,2.733,0,0,0,3.824,0l3.264-3.172a7.294,7.294,0,0,0,1.661-2.584l.492.163a2.754,2.754,0,0,1,1.825,2.588Z" transform="translate(357.5 533.5)" fill="#919191" stroke="#fff" stroke-width="0.8"/>
  </g>
</svg>
