<svg xmlns="http://www.w3.org/2000/svg" width="52" height="52" viewBox="0 0 52 52">
  <g id="Group_860" data-name="Group 860" transform="translate(-342 -734)">
    <g id="Shape_BG" data-name="Shape BG" transform="translate(342 734)" fill="none" stroke="#c1c1c1" stroke-width="1">
      <rect width="52" height="52" rx="5" stroke="none"/>
      <rect x="0.5" y="0.5" width="51" height="51" rx="4.5" fill="none"/>
    </g>
    <path id="shop" d="M21.876,9.115a.9.9,0,0,0-.022-.2L20.669,3.569A4.528,4.528,0,0,0,16.217,0H5.659A4.528,4.528,0,0,0,1.21,3.569L.022,8.917a.9.9,0,0,0-.022.2v.911a3.631,3.631,0,0,0,.911,2.409v4.883a4.563,4.563,0,0,0,4.557,4.557H16.407a4.563,4.563,0,0,0,4.557-4.557V12.436a3.631,3.631,0,0,0,.911-2.409Zm-20.053.1L2.99,3.964A2.718,2.718,0,0,1,5.659,1.823H6.38V4.557a.911.911,0,1,0,1.823,0V1.823h5.469V4.557a.911.911,0,0,0,1.823,0V1.823h.722a2.718,2.718,0,0,1,2.669,2.141l1.167,5.25v.812a1.823,1.823,0,0,1-1.823,1.823h-.911A1.823,1.823,0,0,1,15.5,10.026a.911.911,0,1,0-1.823,0,1.823,1.823,0,0,1-1.823,1.823H10.026A1.823,1.823,0,0,1,8.2,10.026a.911.911,0,1,0-1.823,0,1.823,1.823,0,0,1-1.823,1.823H3.646a1.823,1.823,0,0,1-1.823-1.823ZM16.407,20.053H5.469a2.734,2.734,0,0,1-2.734-2.734V13.557a3.626,3.626,0,0,0,.911.116h.911a3.637,3.637,0,0,0,2.734-1.237,3.637,3.637,0,0,0,2.734,1.237h1.823a3.637,3.637,0,0,0,2.734-1.237,3.637,3.637,0,0,0,2.734,1.237h.911a3.626,3.626,0,0,0,.912-.116v3.762A2.734,2.734,0,0,1,16.407,20.053Z" transform="translate(357.5 749.5)" fill="#919191" stroke="#fff" stroke-width="0.8"/>
  </g>
</svg>
