<svg xmlns="http://www.w3.org/2000/svg" xmlns:xlink="http://www.w3.org/1999/xlink" width="15.087" height="18.159" viewBox="0 0 15.087 18.159">
  <defs>
    <clipPath id="clip-path">
      <rect id="Rectangle_424" data-name="Rectangle 424" width="15.087" height="18.159" fill="#1d76ce" stroke="rgba(0,0,0,0)" stroke-width="1"/>
    </clipPath>
  </defs>
  <g id="Group_806" data-name="Group 806" transform="translate(0 0)">
    <g id="Group_806-2" data-name="Group 806" transform="translate(0 0)" clip-path="url(#clip-path)">
      <path id="Path_405" data-name="Path 405" d="M7.544,0,0,4.166v11.89a2.122,2.122,0,0,0,2.117,2.1H12.971a2.123,2.123,0,0,0,2.117-2.1V4.166Zm6.411,16.056a.987.987,0,0,1-.984.979H2.117a.986.986,0,0,1-.984-.977V4.827l6.41-3.54.1.055,6.311,3.485Z" transform="translate(0 0)" fill="#1d76ce" stroke="rgba(0,0,0,0)" stroke-width="1"/>
      <path id="Path_406" data-name="Path 406" d="M29,20.421a1,1,0,1,0,1-1,1.006,1.006,0,0,0-1,1" transform="translate(-22.463 -15.039)" fill="#1d76ce" stroke="rgba(0,0,0,0)" stroke-width="1"/>
    </g>
  </g>
</svg>
