<svg xmlns="http://www.w3.org/2000/svg" width="23.078" height="17.393" viewBox="0 0 23.078 17.393">
  <g id="Group_668" data-name="Group 668" transform="translate(0.5 0.5)">
    <g id="Group_795" data-name="Group 795" transform="translate(0 0)">
      <path id="Path_326" data-name="Path 326" d="M1.563,30.738A1.563,1.563,0,1,0,3.127,32.3a1.563,1.563,0,0,0-1.563-1.563" transform="translate(0 -24.105)" fill="#f06434" stroke="rgba(0,0,0,0)" stroke-width="1"/>
      <path id="Path_327" data-name="Path 327" d="M1.563,61.476a1.563,1.563,0,1,0,1.563,1.563,1.563,1.563,0,0,0-1.563-1.563" transform="translate(0 -48.21)" fill="#f06434" stroke="rgba(0,0,0,0)" stroke-width="1"/>
      <rect id="Rectangle_344" data-name="Rectangle 344" width="15.445" height="1.232" transform="translate(6.633 7.58)" fill="#f06434" stroke="rgba(0,0,0,0)" stroke-width="1"/>
      <rect id="Rectangle_345" data-name="Rectangle 345" width="15.445" height="1.232" transform="translate(6.633 0.948)" fill="#f06434" stroke="rgba(0,0,0,0)" stroke-width="1"/>
      <path id="Path_328" data-name="Path 328" d="M1.563,0A1.563,1.563,0,1,0,3.127,1.563,1.563,1.563,0,0,0,1.563,0" transform="translate(0 0)" fill="#f06434" stroke="rgba(0,0,0,0)" stroke-width="1"/>
      <rect id="Rectangle_346" data-name="Rectangle 346" width="15.445" height="1.232" transform="translate(6.633 14.213)" fill="#f06434" stroke="rgba(0,0,0,0)" stroke-width="1"/>
    </g>
  </g>
</svg>
