<svg xmlns="http://www.w3.org/2000/svg" width="17.698" height="17.699" viewBox="0 0 17.698 17.699">
  <g id="picture" transform="translate(-0.152 -0.152)">
    <path id="Subtraction_20" data-name="Subtraction 20" d="M2401.4-15028.194h-10.5a3.61,3.61,0,0,1-3.6-3.6v-10.5a3.6,3.6,0,0,1,3.6-3.6h10.5a3.607,3.607,0,0,1,3.6,3.6v10.5A3.614,3.614,0,0,1,2401.4-15028.194Zm-7.5-9.259a2.38,2.38,0,0,0-1.7.7l-3.7,3.7v1.25a2.4,2.4,0,0,0,2.4,2.4h10.5a2.361,2.361,0,0,0,1.027-.237l.189-.095-7.02-7.023A2.385,2.385,0,0,0,2393.9-15037.453Zm0-1.2a3.581,3.581,0,0,1,2.545,1.058l7.02,7.02.094-.188a2.365,2.365,0,0,0,.238-1.031v-10.5a2.4,2.4,0,0,0-2.4-2.4h-10.5a2.4,2.4,0,0,0-2.4,2.4v7.552l2.855-2.854A3.585,3.585,0,0,1,2393.9-15038.654Z" transform="translate(-2387.15 15046.045)" fill="#f06434"/>
    <path id="Subtraction_21" data-name="Subtraction 21" d="M2389.775-15040.946a2.476,2.476,0,0,1-2.473-2.474,2.476,2.476,0,0,1,2.473-2.473,2.476,2.476,0,0,1,2.473,2.473A2.476,2.476,0,0,1,2389.775-15040.946Zm0-3.749a1.277,1.277,0,0,0-1.276,1.275,1.278,1.278,0,0,0,1.276,1.276,1.278,1.278,0,0,0,1.276-1.276A1.277,1.277,0,0,0,2389.775-15044.7Z" transform="translate(-2377.775 15048.67)" fill="#f06434"/>
  </g>
</svg>
