<svg xmlns="http://www.w3.org/2000/svg" width="28" height="28" viewBox="0 0 28 28">
  <g id="Group_700" data-name="Group 700" transform="translate(-1285 -609)">
    <circle id="Ellipse_82" data-name="Ellipse 82" cx="14" cy="14" r="14" transform="translate(1285 609)" fill="#f06434"/>
    <g id="Group_690" data-name="Group 690" transform="translate(1293 616)">
      <g id="Group_691" data-name="Group 691" transform="translate(0 0)">
        <g id="Group_689" data-name="Group 689" transform="translate(0 0)">
          <path id="Path_346" data-name="Path 346" d="M195.75,2.511V1.1a1.1,1.1,0,0,0-1.1-1.1h-3.766a1.1,1.1,0,0,0-1.1,1.1V2.511h-3.138v.949H187.9v9.567a1.732,1.732,0,0,0,1.73,1.73H195.9a1.732,1.732,0,0,0,1.73-1.73V3.459h1.255V2.511ZM190.729.949H194.8V2.51h-4.072Zm5.954,12.077a.782.782,0,0,1-.781.781h-6.276a.781.781,0,0,1-.781-.781V3.459h7.837Z" transform="translate(-186.642 0)" fill="#fff"/>
          <rect id="Rectangle_353" data-name="Rectangle 353" width="0.949" height="4.715" transform="translate(4.393 6.276)" fill="#fff"/>
          <rect id="Rectangle_354" data-name="Rectangle 354" width="0.949" height="4.715" transform="translate(6.904 6.276)" fill="#fff"/>
        </g>
      </g>
    </g>
  </g>
</svg>
