<svg xmlns="http://www.w3.org/2000/svg" width="28" height="28" viewBox="0 0 28 28">
  <g id="Group_701" data-name="Group 701" transform="translate(-1247 -609)">
    <path id="Path_354" data-name="Path 354" d="M14,0A14,14,0,1,1,0,14,14,14,0,0,1,14,0Z" transform="translate(1275 609) rotate(90)" fill="#1d76ce" opacity="0.04"/>
    <path id="Path_353" data-name="Path 353" d="M8.465,9.045l2.182-1.892a3.824,3.824,0,0,0,1.32-2.891V1.8l1.37,1.37L14,2.508,11.5.007,9,2.508l.663.663L11.03,1.8V4.262a2.888,2.888,0,0,1-1,2.183L7.851,8.337a3.9,3.9,0,0,0-.78.924l-.077.127L6.919,9.26a3.721,3.721,0,0,0-.765-.918l-2.188-1.9a2.888,2.888,0,0,1-1-2.183V1.8L4.34,3.17,5,2.508,2.5.007,0,2.508l.663.663L2.033,1.8V4.262a3.824,3.824,0,0,0,1.32,2.891L5.54,9.05a2.878,2.878,0,0,1,.977,2.171v2.843h.937V11.228A2.9,2.9,0,0,1,8.465,9.045" transform="translate(1267.007 616) rotate(90)" fill="#f06434"/>
  </g>
</svg>
