<svg xmlns="http://www.w3.org/2000/svg" width="28" height="28" viewBox="0 0 28 28">
  <g id="Group_702" data-name="Group 702" transform="translate(-1209 -609)">
    <circle id="Ellipse_84" data-name="Ellipse 84" cx="14" cy="14" r="14" transform="translate(1209 609)" fill="#1d76ce" opacity="0.04"/>
    <path id="Union_1" data-name="Union 1" d="M2.062,12.27v-.927h9.279V2.177l.08.039a1.5,1.5,0,0,1,.847,1.341V12.27ZM0,10.208V1.495A1.5,1.5,0,0,1,1.495,0H8.713a1.5,1.5,0,0,1,1.495,1.495v8.713ZM.927,1.495V9.28H9.279V1.495A.566.566,0,0,0,8.713.929H1.495A.568.568,0,0,0,.927,1.495Z" transform="translate(1217 617)" fill="#f06434" stroke="rgba(0,0,0,0)" stroke-width="1"/>
  </g>
</svg>
