<svg width="13" height="14" viewBox="0 0 13 14" fill="none" xmlns="http://www.w3.org/2000/svg">
<path id="Vector" d="M6.5 0.5C5.21442 0.5 3.95772 0.881218 2.8888 1.59545C1.81988 2.30968 0.986756 3.32484 0.494786 4.51256C0.00281635 5.70028 -0.125905 7.00721 0.124899 8.26809C0.375703 9.52896 0.994767 10.6872 1.90381 11.5962C2.81285 12.5052 3.97104 13.1243 5.23192 13.3751C6.49279 13.6259 7.79973 13.4972 8.98744 13.0052C10.1752 12.5132 11.1903 11.6801 11.9046 10.6112C12.6188 9.54229 13 8.28558 13 7C12.9967 5.27711 12.3108 3.62573 11.0925 2.40746C9.87428 1.18918 8.22289 0.503304 6.5 0.5ZM3.5 7.75C3.35167 7.75 3.20666 7.70601 3.08333 7.6236C2.95999 7.54119 2.86386 7.42406 2.80709 7.28701C2.75033 7.14997 2.73547 6.99917 2.76441 6.85368C2.79335 6.7082 2.86478 6.57456 2.96967 6.46967C3.07456 6.36478 3.2082 6.29335 3.35368 6.26441C3.49917 6.23547 3.64997 6.25032 3.78702 6.30709C3.92406 6.36386 4.04119 6.45999 4.12361 6.58332C4.20602 6.70666 4.25 6.85166 4.25 7C4.25 7.19891 4.17099 7.38968 4.03033 7.53033C3.88968 7.67098 3.69892 7.75 3.5 7.75ZM6.5 7.75C6.35167 7.75 6.20666 7.70601 6.08333 7.6236C5.95999 7.54119 5.86386 7.42406 5.80709 7.28701C5.75033 7.14997 5.73548 6.99917 5.76441 6.85368C5.79335 6.7082 5.86478 6.57456 5.96967 6.46967C6.07456 6.36478 6.2082 6.29335 6.35368 6.26441C6.49917 6.23547 6.64997 6.25032 6.78701 6.30709C6.92406 6.36386 7.04119 6.45999 7.1236 6.58332C7.20602 6.70666 7.25 6.85166 7.25 7C7.25 7.19891 7.17098 7.38968 7.03033 7.53033C6.88968 7.67098 6.69892 7.75 6.5 7.75ZM9.5 7.75C9.35167 7.75 9.20666 7.70601 9.08333 7.6236C8.95999 7.54119 8.86386 7.42406 8.80709 7.28701C8.75033 7.14997 8.73547 6.99917 8.76441 6.85368C8.79335 6.7082 8.86478 6.57456 8.96967 6.46967C9.07456 6.36478 9.2082 6.29335 9.35369 6.26441C9.49917 6.23547 9.64997 6.25032 9.78701 6.30709C9.92406 6.36386 10.0412 6.45999 10.1236 6.58332C10.206 6.70666 10.25 6.85166 10.25 7C10.25 7.19891 10.171 7.38968 10.0303 7.53033C9.88968 7.67098 9.69892 7.75 9.5 7.75Z" fill="#F06434"/>
</svg>
