<svg id="_01_align_center" data-name="01 align center" xmlns="http://www.w3.org/2000/svg" width="16" height="16" viewBox="0 0 16 16">
  <path id="Path_391" data-name="Path 391" d="M14.667,16v3.333A.667.667,0,0,1,14,20H2a.667.667,0,0,1-.667-.667V16H0v3.333a2,2,0,0,0,2,2H14a2,2,0,0,0,2-2V16Z" transform="translate(0 -5.333)" fill="#1d76ce"/>
  <path id="Path_392" data-name="Path 392" d="M9.953,0A2,2,0,0,0,8.539.583L5.926,3.2l.943.943L9.291,1.716l.017,10.951h1.333L10.625,1.725l2.413,2.413L13.98,3.2,11.367.583A1.994,1.994,0,0,0,9.953,0Z" transform="translate(-1.975 0)" fill="#1d76ce"/>
</svg>
