<svg xmlns="http://www.w3.org/2000/svg" width="52" height="52" viewBox="0 0 52 52">
  <g id="Group_852" data-name="Group 852" transform="translate(-714 -662)">
    <g id="Shape_BG" data-name="Shape BG" transform="translate(714 662)" fill="none" stroke="#c1c1c1" stroke-width="1">
      <rect width="52" height="52" rx="5" stroke="none"/>
      <rect x="0.5" y="0.5" width="51" height="51" rx="4.5" fill="none"/>
    </g>
    <path id="thumbs-up" d="M20.862,7.109a4.575,4.575,0,0,0-3.456-1.577H13.751l.308-1.87A2.782,2.782,0,0,0,8.818,1.98L7.065,5.532H4.58A4.586,4.586,0,0,0,0,10.113v4.58a4.586,4.586,0,0,0,4.58,4.58H16.764A4.6,4.6,0,0,0,21.3,15.334l.646-4.58a4.58,4.58,0,0,0-1.084-3.645ZM1.832,14.693v-4.58A2.748,2.748,0,0,1,4.58,7.364H6.413V17.441H4.58A2.748,2.748,0,0,1,1.832,14.693Zm18.295-4.2-.647,4.58a2.759,2.759,0,0,1-2.716,2.364H8.245V7.121a.916.916,0,0,0,.211-.267L10.461,2.79a.98.98,0,0,1,1.577-.19.938.938,0,0,1,.213.77L11.768,6.3a.916.916,0,0,0,.9,1.063h4.733A2.748,2.748,0,0,1,20.127,10.5Z" transform="translate(729.5 678.074)" fill="#919191" stroke="#fff" stroke-width="0.8"/>
  </g>
</svg>
