<svg xmlns="http://www.w3.org/2000/svg" width="52" height="52" viewBox="0 0 52 52">
  <g id="Group_858" data-name="Group 858" transform="translate(-342 -590)">
    <g id="Shape_BG" data-name="Shape BG" transform="translate(342 590)" fill="none" stroke="#c1c1c1" stroke-width="1">
      <rect width="52" height="52" rx="5" stroke="none"/>
      <rect x="0.5" y="0.5" width="51" height="51" rx="4.5" fill="none"/>
    </g>
    <path id="megaphone_1_" data-name="megaphone (1)" d="M15.573,0a.916.916,0,0,0-.916.916c0,2.7-2.366,3.664-4.58,3.664H3.664A3.664,3.664,0,0,0,0,8.245v1.832a3.645,3.645,0,0,0,1.387,2.848l3.272,7.3a2.962,2.962,0,0,0,2.705,1.758,2.732,2.732,0,0,0,2.492-3.848l-2.015-4.4h2.236c2.214,0,4.58.963,4.58,3.664a.916.916,0,1,0,1.832,0V.916A.916.916,0,0,0,15.573,0ZM8.187,18.889a.9.9,0,0,1-.823,1.265,1.129,1.129,0,0,1-1.031-.672L3.76,13.741H5.825Zm6.47-5.514a7.075,7.075,0,0,0-4.58-1.466H3.664a1.832,1.832,0,0,1-1.832-1.832V8.245A1.832,1.832,0,0,1,3.664,6.413h6.413a7.075,7.075,0,0,0,4.58-1.461Zm7.237.78a.916.916,0,0,1-1.229.41l-1.832-.916a.916.916,0,0,1,.819-1.64l1.832.916a.916.916,0,0,1,.41,1.225ZM18.422,5.911a.916.916,0,0,1,.41-1.229l1.832-.916a.916.916,0,0,1,.819,1.64l-1.832.916A.916.916,0,0,1,18.422,5.911Zm-.1,3.25a.916.916,0,0,1,.916-.916H21.07a.916.916,0,0,1,0,1.832H19.238A.916.916,0,0,1,18.321,9.161Z" transform="translate(357.44 605.5)" fill="#919191" stroke="#fff" stroke-width="0.8"/>
  </g>
</svg>
