<svg xmlns="http://www.w3.org/2000/svg" xmlns:xlink="http://www.w3.org/1999/xlink" width="30.232" height="30.264" viewBox="0 0 30.232 30.264">
  <defs>
    <linearGradient id="linear-gradient" x1="0.5" x2="0.5" y2="1" gradientUnits="objectBoundingBox">
      <stop offset="0" stop-color="#f7931d"/>
      <stop offset="1" stop-color="#f57234"/>
    </linearGradient>
  </defs>
  <path id="mug-hot-alt" d="M24.554,12.277h-.141a3.806,3.806,0,0,0-3.542-4.911H3.683c-6.692.457-2.455,10.62-.723,13.4a8.443,8.443,0,0,0,7.127,3.791h4.379a8.44,8.44,0,0,0,7.049-3.683h3.039C30.464,20.756,31.624,12.058,24.554,12.277ZM14.466,22.1H10.087a5.992,5.992,0,0,1-5.072-2.675c-.668-.64-4.409-9.6-1.332-9.6H20.871a1.2,1.2,0,0,1,.895.4,1.262,1.262,0,0,1,.32.982C21.395,16.431,20.095,21.866,14.466,22.1Zm10.088-3.683H22.82a20.649,20.649,0,0,0,1.171-3.683c1.484-.1,3.126.265,3.018,1.4a2.436,2.436,0,0,1-2.455,2.28ZM11.08,3.683V1.228a1.228,1.228,0,0,1,2.455,0V3.683a1.228,1.228,0,0,1-2.455,0Zm4.911,0V1.228a1.228,1.228,0,0,1,2.455,0V3.683a1.228,1.228,0,0,1-2.455,0Zm-9.821,0V1.228a1.228,1.228,0,0,1,2.455,0V3.683a1.228,1.228,0,0,1-2.455,0ZM24.554,28.236a1.228,1.228,0,0,1-1.228,1.228H1.228a1.228,1.228,0,1,1,0-2.455h22.1A1.228,1.228,0,0,1,24.554,28.236Z" transform="translate(0.4 0.4)" stroke="#fff" stroke-width="0.8" fill="url(#linear-gradient)"/>
</svg>
