<svg xmlns="http://www.w3.org/2000/svg" xmlns:xlink="http://www.w3.org/1999/xlink" width="30.343" height="30.284" viewBox="0 0 30.343 30.284">
  <defs>
    <linearGradient id="linear-gradient" x1="0.5" x2="0.5" y2="1" gradientUnits="objectBoundingBox">
      <stop offset="0" stop-color="#f7931d"/>
      <stop offset="1" stop-color="#f57234"/>
    </linearGradient>
  </defs>
  <path id="paper-plane" d="M28.383,1.083A3.641,3.641,0,0,0,24.946.1L5.3,4.238A6.132,6.132,0,0,0,1.8,14.65l2.109,2.108a1.228,1.228,0,0,1,.36.869v3.889a3.64,3.64,0,0,0,.368,1.578l-.01.009.032.032A3.683,3.683,0,0,0,6.331,24.8l.032.032.009-.01a3.64,3.64,0,0,0,1.578.368h3.889a1.228,1.228,0,0,1,.868.358l2.108,2.108a6.093,6.093,0,0,0,4.322,1.808,6.2,6.2,0,0,0,1.971-.324,6.056,6.056,0,0,0,4.106-4.894L29.356,4.561a3.652,3.652,0,0,0-.972-3.478ZM5.647,15.025l-2.11-2.108A3.609,3.609,0,0,1,2.65,9.143,3.656,3.656,0,0,1,5.719,6.655L25.168,2.561,6.721,21.01V17.627A3.656,3.656,0,0,0,5.647,15.025Zm17.153,8.8a3.683,3.683,0,0,1-6.248,2.1L14.44,23.817a3.656,3.656,0,0,0-2.6-1.078H8.456L26.905,4.3Z" transform="translate(0.458 0.419)" stroke="#fff" stroke-width="0.8" fill="url(#linear-gradient)"/>
</svg>
