<svg xmlns="http://www.w3.org/2000/svg" xmlns:xlink="http://www.w3.org/1999/xlink" width="40" height="40" viewBox="0 0 40 40">
  <defs>
    <clipPath id="clip-path">
      <rect id="Rectangle_281" data-name="Rectangle 281" width="19.465" height="22.04" fill="#fff"/>
    </clipPath>
  </defs>
  <g id="Group_481" data-name="Group 481" transform="translate(-88 -20)">
    <rect id="Rectangle_241" data-name="Rectangle 241" width="40" height="40" rx="6" transform="translate(88 20)" fill="#227dd7"/>
    <g id="Group_459" data-name="Group 459" transform="translate(98.267 29)">
      <g id="Group_458" data-name="Group 458" clip-path="url(#clip-path)">
        <path id="Path_170" data-name="Path 170" d="M17.14,2.325A7.9,7.9,0,0,0,11.545,0H0V9.207H5.08a4.941,4.941,0,0,1,4.693,3.465l-5.078-.022A4.708,4.708,0,0,0,0,17.345V22.04H5.08a7.949,7.949,0,0,0,7.754-6.3A7.912,7.912,0,0,0,17.14,2.325M8.548,17.586A4.9,4.9,0,0,1,5.08,19.03H3.009V17.345A1.7,1.7,0,0,1,4.694,15.66H9.742a4.94,4.94,0,0,1-1.194,1.927m6.465-6.2a4.93,4.93,0,0,1-2.149,1.263A7.948,7.948,0,0,0,5.08,6.2H3.009V3.009h8.536a4.9,4.9,0,0,1,3.467,8.379" transform="translate(0 0)" fill="#fff"/>
      </g>
    </g>
  </g>
</svg>
