<svg xmlns="http://www.w3.org/2000/svg" width="28" height="28" viewBox="0 0 28 28">
  <g id="Group_767" data-name="Group 767" transform="translate(-1322 -607)">
    <g id="Group_766" data-name="Group 766" transform="translate(37 -2)">
      <circle id="Ellipse_82" data-name="Ellipse 82" cx="14" cy="14" r="14" transform="translate(1285 609)" fill="#1d76ce" opacity="0.08"/>
      <g id="Group_765" data-name="Group 765" transform="translate(1293.02 617.021)">
        <g id="Group_765-2" data-name="Group 765" transform="translate(0 0)">
          <path id="Path_399" data-name="Path 399" d="M23.37.614a1.666,1.666,0,0,0-2.306,0L13.738,7.941v2.305h2.305L23.37,2.92a1.635,1.635,0,0,0,0-2.305m-.691,1.614-7.04,7.04h-.923V8.345l7.04-7.04a.666.666,0,0,1,.922,0,.655.655,0,0,1,0,.924" transform="translate(-11.048 -0.121)" fill="#1d76ce"/>
          <path id="Path_400" data-name="Path 400" d="M11.838,8.609H8.609v3.228H.977V1.565A.588.588,0,0,1,1.565.977H7.871L8.729.12C8.774.078,8.82.038,8.866,0h-7.3A1.567,1.567,0,0,0,0,1.565v11.25H9.838l2.977-2.977V3.949c-.038.047-.078.093-.118.137h0l-.858.858ZM9.587,11.684v-2.1h2.1Z" transform="translate(0 0)" fill="#1d76ce"/>
        </g>
      </g>
    </g>
  </g>
</svg>
